<svg id="Calque_1" data-name="Calque 1" xmlns="http://www.w3.org/2000/svg" viewBox="0 0 300 300"><defs><style>.cls-1{fill:#e46f4c;}</style></defs><title>default</title><path class="cls-1" d="M37.77,134.64l96.87-96.88,6.63,6.63L44.4,141.28ZM160.64,257.53l96.89-96.89,6.63,6.63-96.87,96.87ZM37.77,167.26l6.63-6.63,96.87,96.88-6.63,6.63ZM160.64,44.39l6.64-6.63,96.87,96.86-6.63,6.63Z"/><path class="cls-1" d="M150,13.26,165.78,29,150,44.8,134.22,29,150,13.26M150,0,121,29l29,29,29-29Zm0,255.2L165.78,271,150,286.74,134.22,271,150,255.2m0-13.27-29,29,29,29,29-29ZM29,134.22,44.8,150,29,165.78,13.26,150,29,134.22M29,121,0,150l29,29,29-29ZM271,134.22,286.74,150,271,165.78,255.2,150,271,134.22M271,121l-29,29,29,29,29-29Z"/></svg>